<svg version="1.2" xmlns="http://www.w3.org/2000/svg" viewBox="0 0 1554 369" width="1554" height="369">
	<style>
		.s0 { fill: #ffffff } 
	</style>
	<path id="Santiago." class="s0" aria-label="Santiago."  d="m210.4 87.8c-2-50.8-39.6-87.2-106.8-87.2-64.8 0-97.2 34-97.2 81.6 0 33.6 16 52.8 44.4 65.6 18.8 8.4 40 13.2 72.8 20.4 33.2 7.2 41.2 18 41.2 33.6 0 23.6-18.8 37.6-51.6 37.6-35.6 0-58.4-16.8-59.2-44h-53.6c1.2 59.6 46.8 88.8 112.4 88.8 62 0 106-26 106-84.4 0-37.6-18.4-54-41.6-64.4-19.6-8.8-48.8-16-78.8-23.2-29.6-7.2-41.2-16.8-41.2-33.6 0-20 16.4-31.2 47.6-31.2 33.6 0 50 13.2 52.8 40.4zm142.2 112.4c-0.4 23.2-20.4 42.8-47.2 42.8-16.4 0-25.2-7.2-25.2-22 0-16.8 9.6-25.2 39.2-30.8 19.2-3.6 28.4-6.4 33.6-11.6zm52.4 74.8v-124.4c0-49.6-21.6-77.6-84-77.6-63.2 0-85.6 28.4-86.4 69.2h48.4c2.4-17.6 12-29.2 35.6-29.2 20.4 0 33.2 7.6 33.2 20.4 0 13.6-7.2 18.8-33.2 22.4-52.4 7.2-90.4 13.6-90.4 70.4 0 32 20.8 54 65.6 54 26.4 0 47.2-9.2 59.6-22.8 0.4 6 1.6 12.8 3.2 17.6zm201.8 0v-136.4c0-42.8-27.6-65.6-65.2-65.6-31.6 0-51.6 12-63.6 34v-28.8h-49.6v196.8h52v-112.8c0-30 13.2-45.2 40.4-45.2 24.8 0 33.6 8.4 33.6 38.8v119.2zm134.2-78.4c0 24.4-9.6 38.4-30.4 38.4-21.2 0-30-14.4-30-39.2v-80.8h108.8v-36.8h-108.8v-53.2h-51.2v176c0 42.4 22.8 79.2 80.4 79.2 55.6 0 79.6-37.2 79.6-78.8v-56h-48.4zm122.6 78.4v-196.8h-52v196.8zm0-220.4v-48.4h-52v48.4zm143 145.6c-0.4 23.2-20.4 42.8-47.2 42.8-16.4 0-25.2-7.2-25.2-22 0-16.8 9.6-25.2 39.2-30.8 19.2-3.6 28.4-6.4 33.6-11.6zm52.4 74.8v-124.4c0-49.6-21.6-77.6-84-77.6-63.2 0-85.6 28.4-86.4 69.2h48.4c2.4-17.6 12-29.2 35.6-29.2 20.4 0 33.2 7.6 33.2 20.4 0 13.6-7.2 18.8-33.2 22.4-52.4 7.2-90.4 13.6-90.4 70.4 0 32 20.8 54 65.6 54 26.4 0 47.2-9.2 59.6-22.8 0.4 6 1.6 12.8 3.2 17.6zm116.8-39.2c-25.6 0-44.4-22.4-44.4-57.6 0-40.4 15.2-60 44.4-60 29.6 0 44.4 20.4 44.4 63.2 0 33.2-19.2 54.4-44.4 54.4zm42.8 45.2c0 26-22 42.4-49.6 42.4-26 0-43.2-14-43.2-37.6h-48.4c0 50.8 40.4 82.4 95.2 82.4 54.8 0 98-32 98-91.2v-198.8h-52v24.4c-12.4-20-30.4-29.6-55.2-29.6-47.6 0-86 41.2-86 102.4 0 51.6 22.4 101.2 87.2 101.2 25.6 0 46.8-10.4 54-28zm171.6-44.4c-31.6 0-47.6-20-47.6-60 0-40 16-59.6 47.6-59.6 31.6 0 47.6 19.6 47.6 59.6 0 40-16 60-47.6 60zm0 43.6c61.2 0 100-41.2 100-103.6 0-62.8-38.4-103.6-100-103.6-62.4 0-101.2 41.2-101.2 103.6 0 61.2 37.6 103.6 101.2 103.6zm163.6-5.2v-54h-55.6v54z"/>
</svg>